<svg width="183" height="131" viewBox="0 0 183 131" fill="none" xmlns="http://www.w3.org/2000/svg">
<rect width="183" height="131" rx="8" fill="#E4DFD5"/>
<mask id="mask0" mask-type="alpha" maskUnits="userSpaceOnUse" x="0" y="0" width="183" height="131">
<rect width="183" height="131" rx="8" fill="#C4C4C4"/>
</mask>
<g mask="url(#mask0)">
<path d="M128.513 117.759C122.48 113.773 116.985 110.648 113.429 108.816C110.197 112.803 105.78 116.251 100.177 118.19C97.4836 119.16 94.6823 119.591 91.7733 119.591C88.8643 119.591 85.9553 119.052 83.2618 118.082C77.6592 116.035 73.3495 112.587 70.1173 108.709C66.5618 110.54 61.1748 113.665 55.0335 117.651C51.2626 120.129 49 124.439 49 128.964C49 136.398 55.0335 142.432 62.4677 142.432H121.079C128.513 142.432 134.547 136.398 134.547 128.964C134.547 124.547 132.284 120.345 128.513 117.759Z" fill="#481F0E"/>
<path d="M63.1142 85.0056C63.7607 87.1604 64.9458 91.3623 67.5316 93.9481C69.471 101.275 75.289 109.786 84.6625 113.234C86.9251 114.096 89.2954 114.419 91.6657 114.419C94.036 114.419 96.4063 113.988 98.5611 113.234C107.935 110.002 113.753 101.382 115.692 93.9481C118.278 91.4701 119.571 87.2681 120.109 85.0056C121.079 81.4501 122.156 76.3863 119.463 72.8308C119.355 72.7231 119.247 72.6153 119.14 72.3998C119.894 67.9824 119.894 64.427 119.032 60.9792C117.955 56.4541 115.584 52.2522 112.029 48.589C110.197 46.6496 108.15 44.9258 105.888 43.4174C103.84 42.0168 101.686 40.9393 99.5308 40.1852C97.5915 39.5387 95.5444 39.1077 93.4973 39C92.6354 39.1077 91.8812 39.1077 91.127 39.1077C86.6018 39.1077 82.5077 40.1852 78.7367 42.34C75.6122 44.0638 73.5651 46.1109 72.38 47.7271C70.8716 48.3735 68.9323 49.4509 67.2084 51.6057C63.6529 56.1309 62.6833 63.1341 64.0839 72.5076C63.9761 72.6153 63.8684 72.7231 63.7607 72.9385C61.0671 76.3863 62.1445 81.5578 63.1142 85.0056ZM69.7942 75.2011C69.9019 75.2011 70.0097 75.2011 70.1174 75.2011V75.0934C69.7942 74.0159 68.1781 67.6592 73.7806 63.7805C78.198 64.8579 84.9857 64.9657 94.036 61.087C111.49 53.6528 113.106 75.2011 113.106 75.2011C113.214 75.2011 113.322 75.2011 113.429 75.2011C115.261 75.2011 117.093 76.6017 115.153 83.6049C113.645 89.0997 112.137 90.6081 111.059 90.6081C110.089 97.0726 105.026 105.261 96.8373 108.17C95.1134 108.709 93.3895 109.032 91.6657 109.032C89.9418 109.032 88.1102 108.709 86.4941 108.17C78.4135 105.261 73.2419 97.0726 72.2722 90.6081C71.1948 90.5004 69.7942 88.992 68.1781 83.6049C66.2387 76.6017 68.0703 75.2011 69.7942 75.2011Z" fill="#481F0E"/>
</g>
</svg>
