<svg width="183" height="131" viewBox="0 0 183 131" fill="none" xmlns="http://www.w3.org/2000/svg">
<rect width="183" height="131" rx="8" fill="#E4DFD5"/>
<mask id="mask0" mask-type="alpha" maskUnits="userSpaceOnUse" x="0" y="0" width="183" height="131">
<rect width="183" height="131" rx="8" fill="#E4DFD5"/>
</mask>
<g mask="url(#mask0)">
<path d="M75.6251 131.348H131C131 131.348 129.615 122.959 119.694 119.749C119.694 119.749 119.895 118.493 120.186 116.294C121.616 105.433 125.198 71.536 117.303 52.0605C115.812 48.8705 114.086 46.334 112.184 44.4648C109.43 41.7497 106.546 39.485 103.474 37.8336C99.1767 35.8692 95.2194 34.9282 91.5368 34.8467C91.525 34.8467 91.5113 34.8457 91.4995 34.8457C91.4868 34.8457 91.475 34.8467 91.4622 34.8467C87.7806 34.9282 83.8224 35.8692 79.5255 37.8336C76.4543 39.486 73.5695 41.7497 70.8142 44.4648C68.9155 46.334 67.1865 48.8695 65.696 52.0595C57.804 71.5321 61.3825 105.418 62.8142 116.289C63.1036 118.493 63.3058 119.75 63.3058 119.75C53.3865 122.959 52 131.348 52 131.348H68.2914C72.3969 130.497 77.7888 128.645 83.0442 126.608C86.9672 125.088 90.8136 123.461 93.9899 122.073C85.6749 123.736 79.9396 119.311 79.9396 119.311V118.728C85.2334 113.964 84.9949 109.43 84.468 107.303C86.3559 108.257 88.0721 108.892 89.3918 109.24C89.9443 109.371 91.0481 109.554 92.156 109.281C92.1569 109.281 92.1599 109.281 92.1618 109.279C93.4551 108.905 94.6993 108.377 95.8945 107.748C96.1957 107.591 96.492 107.426 96.7864 107.255C97.0602 107.098 97.3329 106.933 97.6008 106.761C97.5537 106.905 97.5056 107.072 97.4595 107.255C97.4203 107.409 97.382 107.571 97.3496 107.748C96.9169 109.995 97.0229 114.173 101.804 118.571L103.374 119.926C102.878 120.162 96.1771 123.348 88.2673 126.608C84.1452 128.306 79.6972 130.019 75.6251 131.348ZM102.452 100.931C101.3 101.971 100.052 102.974 98.7165 103.871C96.8482 105.125 94.819 106.167 92.6583 106.791C92.6554 106.791 92.6534 106.792 92.6534 106.792C92.6132 106.803 92.574 106.806 92.5347 106.814C91.9371 106.945 91.3523 106.945 90.8539 106.901C90.3574 106.945 89.7706 106.945 89.174 106.814C89.1328 106.805 89.0935 106.802 89.0553 106.792C89.0533 106.792 89.0513 106.791 89.0494 106.791C86.8926 106.167 84.8595 105.126 82.9932 103.871C81.6587 102.974 80.4077 101.97 79.2586 100.931C74.4859 96.6124 71.4294 91.667 71.1625 91.3098C70.7239 90.726 66.639 88.8283 65.3251 87.3692C64.8885 85.0348 66.7842 80.7694 66.7842 80.7694L70.4315 86.6391C65.3428 68.8916 85.7829 58.1991 90.1542 56.1395C90.1542 56.1395 90.9059 52.555 91.002 50.5033L91.6153 56.1699C96.1182 58.3011 116.339 68.976 111.274 86.6401L114.923 80.7704C114.923 80.7704 116.82 85.0358 116.382 87.3701C115.067 88.8283 110.983 90.7269 110.545 91.3108C110.277 91.667 107.22 96.6124 102.452 100.931Z" fill="#481F0E"/>
</g>
</svg>
